<?xml version="1.0" encoding="utf-8"?>
<!-- Generator: Adobe Illustrator 27.7.0, SVG Export Plug-In . SVG Version: 6.00 Build 0)  -->
<svg version="1.1" id="Layer_1" xmlns="http://www.w3.org/2000/svg" xmlns:xlink="http://www.w3.org/1999/xlink" x="0px" y="0px"
	 viewBox="0 0 595.28 60.17" style="enable-background:new 0 0 595.28 60.17;" xml:space="preserve">
<style type="text/css">
	.st0{fill:#FFFBD0;}
</style>
<path class="st0" d="M307.11,34.78c-1.74,1.29-2.3,3.21-2.75,5.15c-0.32,1.4-0.37,2.85-0.61,4.27c-0.36,2.19-1.97,3.59-3.48,5.03
	c-0.16,0.16-0.76,0.12-0.96-0.06c-2.29-1.96-3.9-4.24-3.85-7.45c0.02-1.19-0.49-2.39-0.76-3.58c-0.73-1.79-1.76-3.38-3.43-4.46
	c-0.55-0.36-1.15-0.62-1.73-0.93c-0.13-0.06-0.26-0.12-0.39-0.18c-0.13-0.01-0.26-0.01-0.38-0.02c0.12,0.09,0.25,0.18,0.37,0.27
	l0.03,0.03c2.22,1.33,3.91,3.07,4.52,5.66c-0.02,0.74-0.1,1.48-0.03,2.21c0.11,1.15-0.53,1.89-1.25,2.62
	c-0.9,0.93-1.91,1.77-2.7,2.79c-1.21,1.56-1.64,3.45-1.87,5.37c-0.03,0.23-0.11,0.45-0.16,0.69c-0.88-0.38-1.4-1.37-1.14-2.38
	c0.83-3.17,0.93-6.42,0.67-9.63c-0.2-2.34-0.63-4.82-2.99-6.24c-0.52-0.32-1.17-0.5-1.78-0.61c-1.69-0.31-3.31,0-4.85,0.73
	c-0.6,0.28-0.87,0.31-1.04-0.51c-0.76-3.67-3.54-5.37-6.86-6.28c-1.66-0.45-3.45-0.45-5.19-0.58c-1.12-0.08-2.24-0.02-3.17-0.02
	c-0.68-1.33-1.14-2.68-1.98-3.74c-0.87-1.1-2.02-2.04-3.2-2.82c-2.99-1.97-6.44-2.6-9.93-3.05c-2.79-0.36-5.59-0.65-8.39-0.96
	c0.12-0.41,0.25-0.82,0.37-1.24c2.96-0.86,5.9-1.8,8.88-2.55c3.73-0.95,7.49-1.82,11.27-2.59c2.04-0.42,4.13-0.56,6.2-0.81
	c2.19-0.26,4.39-0.58,6.59-0.69c1.91-0.09,3.85,0.02,5.76,0.15c1.43,0.09,2.86,0.28,4.27,0.54c2.89,0.52,5.1,1.93,6.14,4.78
	c0.09,0.25,0.15,0.53,0.14,0.8c-0.05,2.02-0.14,4.04-0.19,6.06c-0.04,1.67,0.18,3.3,0.87,4.86c1,2.27,3.13,3.44,5.79,2.67
	c1.65-0.48,3.18-1.32,4.82-1.86c0.6-0.2,1.39-0.18,1.99,0.02c1.91,0.63,3.73,1.54,5.67,2.06c2.03,0.55,4.65-1.3,5.21-3.38
	c0.67-2.5,0.67-5.01,0.38-7.57c-0.35-3.13,0.42-5.89,3.46-7.43c1.37-0.69,2.96-1.12,4.49-1.3c2.51-0.3,5.05-0.41,7.58-0.41
	c1.68,0,3.35,0.36,5.02,0.54c1.76,0.19,3.53,0.29,5.28,0.57c2.31,0.36,4.61,0.8,6.9,1.3c2.87,0.62,5.72,1.29,8.56,2.03
	c2.24,0.58,4.45,1.31,6.68,1.96c1.04,0.31,2.1,0.59,3.15,0.89c-0.01,0.11-0.03,0.21-0.04,0.32c-0.64,0.11-1.28,0.26-1.92,0.33
	c-2.57,0.26-5.17,0.38-7.72,0.78c-4.18,0.65-8.31,1.56-11.78,4.19c-1.67,1.27-2.66,2.94-3.04,4.98c-0.02,0.11-0.06,0.23-0.11,0.41
	c-1.48,0-2.94-0.09-4.39,0.02c-2.12,0.17-4.29,0.29-6.22,1.28c-2.25,1.16-4.1,2.75-4.88,5.27c-0.12,0.38-0.21,0.78-0.28,1.03
	c-1.6-0.33-3.08-0.81-4.59-0.91c-1.92-0.13-3.43,0.91-4.41,2.47c-0.88,1.41-1.43,2.99-1.51,4.69c0,1.3,0,2.59,0,3.89
	c0.15,1.25,0.31,2.51,0.45,3.76c0.13,1.27,0.65,2.55-0.1,3.8c-0.12,0.2-0.15,0.46-0.22,0.7c-0.12-0.11-0.24-0.22-0.37-0.32
	c-0.31-1.21-0.63-2.41-0.91-3.63c-0.32-1.34-1.05-2.44-2-3.42c-0.82-0.84-1.77-1.58-2.47-2.51c-1.11-1.48-1.06-3.18-0.4-4.82
	c0.39-0.97,0.97-1.87,1.47-2.81c1.05-0.82,2.1-1.64,3.15-2.47c-0.05-0.06-0.1-0.13-0.15-0.19C309.29,32.87,308.05,33.6,307.11,34.78
	z M278.46,14.69c-0.18,0.02-0.36,0.01-0.54,0.05c-2.62,0.55-4.9,1.83-7.06,3.3c-1.54,1.05-3.01,2.21-4.51,3.34
	c-0.36,0.27-0.68,0.61-1.02,0.91c0.06,0.07,0.12,0.15,0.17,0.22c0.22-0.12,0.44-0.24,0.65-0.38c1.93-1.28,3.78-2.71,5.81-3.82
	c2.08-1.13,4.33-1.94,6.5-2.89c1.62-0.28,3.23-0.56,4.85-0.84c-0.01-0.09-0.02-0.17-0.03-0.26
	C281.67,14.31,280.05,14.1,278.46,14.69z M332.2,20.72c-0.19-0.14-0.38-0.29-0.58-0.43c-1.88-1.3-3.72-2.68-5.66-3.88
	c-1.98-1.23-4.28-1.68-6.55-2.06c-1.04-0.18-2.14-0.03-3.21-0.03c-0.01,0.08-0.03,0.17-0.04,0.25c5.72,0.73,10.78,3.01,15.46,6.21
	c0.71,0.51,1.43,1.02,2.14,1.52c0.08-0.11,0.16-0.22,0.24-0.33C333.4,21.55,332.8,21.14,332.2,20.72z"/>
<path class="st0" d="M313.83,40.17c0.01-1.49,0.32-2.88,1.27-4.07c0.17-0.21,0.42-0.36,0.63-0.54c0.13,0.24,0.38,0.5,0.36,0.73
	c-0.2,1.84,2.09,3.5,4.36,2.86c1.91-0.54,3.37-1.55,4.12-3.43c0.05-0.12,0.16-0.22,0.27-0.38c0.38,1.66-1.24,4.3-3.11,5.06
	c-0.07,0.04-0.14,0.09-0.22,0.13c-0.18,0.02-0.35,0.04-0.53,0.06c-1.26,0.1-2.52,0.19-3.7,0.28c1.03,1.09,2.45,1.04,3.88,0.94
	c2.33-0.41,3.95-1.97,4.48-4.15c0.27-1.1,0.44-2.22,0.66-3.4c0.35,0,0.69,0,1.03,0c6.83,0,13.67-0.05,20.5,0.03
	c2.21,0.03,3.31-0.9,3.77-2.92c3.3,0,6.6-0.01,9.91,0c1.96,0.01,3.92,0.11,5.88,0.1c15.47-0.04,30.93-0.13,46.4-0.15
	c15.85-0.02,31.69,0.03,47.54,0.03c19.44,0,38.87-0.04,58.31-0.04c1.77,0,3.53,0.14,5.3,0.17c2.22,0.03,4.44,0.01,6.65,0.01
	c7.58-0.03,15.15-0.06,22.73-0.09c0.75,0,1.49,0.04,2.24,0.06c1.31,0.01,2.61,0.01,3.92,0.03c4.69,0.05,9.37,0.11,14.06,0.16
	c0.48,0.02,0.96,0.05,1.64,0.08c-0.91,0.97-1.85,1.51-2.95,1.79c-0.65,0.17-1.32,0.25-1.96,0.43c-0.62,0.17-1.2,0.33-1.44,1.12
	c-0.1,0.32-0.79,0.62-1.23,0.65c-2.34,0.18-4.68,0.26-7.02,0.4c-2.95,0.17-5.9,0.37-8.85,0.55c-2.22,0.13-4.44,0.24-6.66,0.38
	c-0.51,0.03-1.02,0.15-1.53,0.22c-0.05-0.1-0.1-0.2-0.15-0.3c0.67-0.36,1.3-0.88,2.02-1.06c1.81-0.45,3.65-0.75,5.48-1.11
	c1.47-0.12,2.99-0.07,4.29-1.02c-1.44-0.24-2.86-0.42-4.29-0.03c-4.05-0.01-8.11-0.03-12.16-0.03c-1.91,0-3.83,0.06-5.74,0.07
	c-5.77,0.04-11.54,0.07-17.31,0.11c-9.07,0.07-18.15,0.15-27.22,0.22c-7.32,0.06-14.65,0.1-21.97,0.15
	c-23.02,0.16-46.04,0.33-69.06,0.49c-5.21,0.04-10.42,0.05-15.63,0.07c-1.86,0.01-3.57,0.4-5.07,1.57
	c-1.18,0.92-2.59,1.29-4.07,1.37c-2.47,0.14-4.93,0.26-7.4,0.39c-2.31,0.12-4.63,0.21-6.94,0.38c-2.91,0.21-5.81,0.49-8.72,0.73
	c-2.91,0.25-5.82,0.51-8.73,0.73c-1.48,0.11-2.97,0.08-4.45,0.21c-1.31,0.11-2.65,0.2-3.88,0.59c-0.87,0.28-1.62,1-2.36,1.61
	c-0.69,0.56-1.3,1.23-1.95,1.84c-0.3-0.3-0.61-0.61-0.91-0.91c-0.01-0.12-0.02-0.25-0.03-0.37c0.38-0.21,0.75-0.43,1.13-0.64
	c-0.06-0.08-0.11-0.16-0.17-0.24c-0.5,0.08-0.95,0.22-0.96,0.89c-1.2,0.65-2.38,1.34-3.6,1.96c-1.84,0.93-3.8,1.48-5.89,1.33
	c-0.72-0.05-1.44-0.2-2.15-0.35c-1.6-0.36-1.6-0.37-2.07,1.2c-0.07,0.22-0.17,0.44-0.44,0.68c-0.09-0.56-0.18-1.11-0.25-1.67
	c-0.07-0.62-0.12-1.24-0.18-1.86C313.73,42.88,313.78,41.53,313.83,40.17z"/>
<path class="st0" d="M272.82,44.85c0.33,0.39,0.66,0.77,1.17,1.38c-0.67-0.22-1.22-0.27-1.58-0.56c-1.14-0.87-2.32-1.73-3.27-2.78
	c-1.5-1.66-3.32-2.42-5.5-2.54c-3.24-0.18-6.47-0.33-9.71-0.55c-3.1-0.21-6.19-0.5-9.29-0.73c-2.67-0.2-5.35-0.39-8.02-0.55
	c-2.28-0.14-4.57-0.22-6.84-0.39c-1.71-0.13-3.41-0.36-5.12-0.54c-1.28-0.13-2.21-0.93-3.27-1.52c-0.91-0.5-1.96-1.03-2.96-1.05
	c-7.75-0.18-15.5-0.25-23.26-0.32c-2.42-0.02-4.85,0.12-7.27,0.1c-5.38-0.04-10.77-0.15-16.15-0.21c-4.02-0.05-8.05-0.08-12.07-0.09
	c-1.18,0-2.35,0.13-3.53,0.12c-5.97-0.07-11.94-0.17-17.92-0.26c-0.49-0.01-0.99,0.08-1.48,0.08c-5.57-0.06-11.14-0.14-16.71-0.21
	c0.32-0.68,0.1-1.09-0.63-1.26c-0.18-0.04-0.37-0.08-0.52-0.18c-0.19-0.12-0.34-0.29-0.51-0.44c0.17-0.15,0.32-0.33,0.51-0.45
	c0.31-0.2,0.64-0.37,0.96-0.56c1.55,0.05,3.09,0.15,4.64,0.14c12.87-0.05,25.74-0.15,38.6-0.17c16.48-0.02,32.95,0.03,49.43,0.04
	c11.67,0.01,23.33,0,35,0c0.09,0,0.18,0.02,0.27,0.04c0.26,0.52,0.46,1.06,0.77,1.52c1.04,1.53,2.56,1.71,4.24,1.43
	c0.27-0.05,0.55-0.08,0.82-0.08c5.99,0,11.98-0.01,17.97,0c0.39,0,0.78,0.16,1.17,0.16c0.61-0.01,0.59,0.35,0.63,0.78
	c0.19,2.31,0.89,4.41,2.89,5.83c0.91,0.65,1.9,1.16,3.09,0.77c1.17-0.09,2.38-0.08,3.4-1.27c-1.25,0.09-2.23,0.15-3.21,0.22
	c-2.81-0.28-5.56-3.3-4.89-5.36c0.57,0.75,1.08,1.56,1.73,2.24c1.19,1.23,2.68,1.78,4.42,1.61c1.29-0.12,2.59-1.53,2.67-2.92
	c0.01-0.24,0-0.49,0-0.74c0.69,0.08,1.81,1.33,1.87,2.2c0.16,2.31,0.32,4.62,0.35,6.93c0.01,1.12-0.28,2.25-0.6,3.38
	c-0.11-0.59-0.2-1.19-0.32-1.78c-0.09-0.43-0.33-0.69-0.84-0.61c-0.84,0.13-1.7,0.21-2.53,0.38c-2.75,0.57-5.15-0.33-7.45-1.66
	c-0.13-0.08-0.28-0.13-0.42-0.19c-0.82-0.52-1.64-1.04-2.46-1.55c-0.1,0.13-0.19,0.26-0.29,0.39
	C271.5,43.67,272.16,44.26,272.82,44.85z"/>
<path class="st0" d="M78.48,33.86c-3.62,0-7.24,0-10.86,0c0.19-0.11,0.36-0.3,0.56-0.33c0.97-0.18,1.95-0.33,3.03-0.5
	c-1.62-1.29-6.76-1.22-8,0.01c0.53,0.27,1.07,0.55,1.6,0.82c-2.71,0.01-5.41,0.05-8.12,0.02c-2.41-0.02-4.82-0.12-7.23-0.18
	c-1.98,0-3.95,0-5.93,0c1.72,1.11,3.7,0.91,5.54,1.33c1.24,0.24,2.47,0.48,3.71,0.7c0.93,0.17,1.7,0.58,2.25,1.51
	c-0.61-0.07-1.22-0.17-1.83-0.19c-1.79-0.08-3.59-0.1-5.38-0.21c-2.33-0.15-4.66-0.36-6.99-0.54c-0.95-0.07-1.9-0.14-2.86-0.19
	c-1.3-0.07-2.59-0.12-3.89-0.19c-1.26-0.06-2.52-0.15-3.79-0.17c-0.56-0.01-0.68-0.34-0.68-0.75c0-0.49-0.19-0.66-0.67-0.79
	c-1.31-0.35-2.6-0.76-3.87-1.21c-0.42-0.15-0.81-0.44-1.13-0.75c-0.16-0.16-0.11-0.52-0.15-0.78c4.23,0.01,8.46,0.03,12.68,0.01
	c2.2-0.01,4.41-0.07,6.61-0.11c2.99,0,5.97,0,8.96,0c10.56-0.01,21.11-0.01,31.67-0.02c0.19,0,0.37,0.03,0.56,0.04
	c-0.31,0.22-0.59,0.52-0.94,0.63c-0.55,0.17-1.15,0.2-1.72,0.31c-0.73,0.14-1.44,0.37-2.18,0.43C78.7,32.82,78.37,33.12,78.48,33.86
	z M76.83,33.2c0.01-0.13,0.03-0.27,0.04-0.4c-1.09-0.38-2.21-0.16-3.32-0.17c-0.01,0.11-0.01,0.21-0.02,0.32
	C74.64,33.03,75.74,33.12,76.83,33.2z"/>
<path class="st0" d="M78.48,33.86c-0.11-0.74,0.22-1.04,0.97-1.1c0.73-0.06,1.45-0.29,2.18-0.43c0.57-0.11,1.17-0.14,1.72-0.31
	c0.34-0.11,0.63-0.41,0.94-0.63c5.42-0.02,10.83-0.06,16.25-0.07c6.44-0.01,12.89,0.01,19.33,0.01c-0.32,0.18-0.65,0.35-0.96,0.56
	c-0.19,0.12-0.34,0.3-0.51,0.45c0.17,0.15,0.32,0.32,0.51,0.44c0.15,0.1,0.34,0.14,0.52,0.18c0.74,0.17,0.95,0.58,0.63,1.26
	c-4.23-0.04-8.47-0.11-12.7-0.12c-7.33-0.03-14.66-0.01-21.99-0.04C83.07,34.05,80.77,33.93,78.48,33.86z"/>
<path class="st0" d="M294.97,24.65c-0.1,0.31-0.19,0.62-0.31,0.93c-0.39,0.99-1.16,1.23-2.09,0.69c-1.28-0.73-1.79-1.93-2.11-3.25
	c-0.42-1.76,0.13-3.46,0.29-5.19c0.15-1.62,0.03-3.28,0.03-4.99c0.1,0.03,0.33,0.02,0.45,0.13c2.92,2.79,5.09,6.01,5.77,10.06
	c0.08,0.47,0.25,0.92,0.35,1.38c0.11,0.54,0.12,1.06-0.57,1.25c-0.76,0.21-0.61-0.44-0.78-0.81c-0.04-0.08-0.11-0.15-0.16-0.22
	c0.03-1.37-0.37-2.63-1.15-3.81C294.79,22.11,294.88,23.38,294.97,24.65z"/>
<path class="st0" d="M303.77,23.91c-0.02,0.05-0.04,0.1-0.04,0.15c-0.04,0.07-0.09,0.15-0.13,0.22c-0.09,0.47-0.17,0.95-0.26,1.41
	c-0.83,0.03-1.38-0.51-1.24-1.16c0.63-3.07,1.7-5.97,3.54-8.54c0.73-1.02,1.67-1.88,2.53-2.8c0.11-0.12,0.31-0.15,0.45-0.21
	c0,0.78-0.05,1.51,0.01,2.24c0.14,1.54,0.39,3.07,0.5,4.61c0.13,1.91,0.32,3.87-1.08,5.47c-0.42,0.48-1,0.86-1.59,1.14
	c-0.73,0.34-1.37-0.06-1.58-0.91c-0.12-0.53-0.16-1.07-0.23-1.61c0.18-1.27,0.36-2.54,0.54-3.8
	C304.42,21.27,303.87,22.51,303.77,23.91z"/>
<path class="st0" d="M24.55,30.59c-0.24-0.03-0.48-0.06-0.72-0.1c-0.02-0.06-0.03-0.12-0.05-0.18c0.46-0.16,0.9-0.41,1.37-0.47
	c2.66-0.34,5.33-0.65,8-0.94c1.75-0.19,3.41-0.53,4.84-1.68c1.18-0.95,1.76-0.95,3.36-0.36c-0.28,0.22-0.52,0.37-0.7,0.56
	c-0.32,0.33-0.88,0.71-0.85,1.02c0.03,0.37,0.56,0.74,0.94,1.01c0.5,0.36,1.07,0.62,1.6,0.93c-0.31,0.06-0.62,0.17-0.94,0.17
	C35.78,30.57,30.17,30.58,24.55,30.59z"/>
<path class="st0" d="M557.46,30.36c0.59-0.38,1.2-0.75,1.78-1.14c0.89-0.6,0.89-1.01-0.02-1.62c-0.35-0.24-0.74-0.43-1.12-0.64
	c0.74-0.6,2.16-0.67,2.96-0.13c0.48,0.32,0.92,0.69,1.41,1c1.28,0.81,2.71,1,4.2,1.09c2.92,0.16,5.83,0.44,8.65,1.28
	c0.1,0.03,0.2,0.09,0.58,0.26c-0.58,0.07-0.89,0.1-1.2,0.13c-5.47-0.01-10.95-0.02-16.42-0.04C558,30.55,557.73,30.43,557.46,30.36z
	"/>
<path class="st0" d="M64.81,33.86c-0.53-0.27-1.07-0.55-1.6-0.82c1.24-1.23,6.38-1.3,8-0.01c-1.07,0.17-2.05,0.32-3.03,0.5
	c-0.2,0.04-0.37,0.22-0.56,0.33C66.68,33.86,65.75,33.86,64.81,33.86z"/>
<path class="st0" d="M328.29,43.32c0.3,0.3,0.61,0.61,0.91,0.91c-1.03,0.82-2.01,1.74-3.71,1.96
	C326.54,45.11,327.42,44.21,328.29,43.32z"/>
<path class="st0" d="M304.65,23.91c-0.29,0-0.59,0-0.88,0"/>
<path class="st0" d="M305.19,20.11"/>
<path class="st0" d="M238.21,14.88c-0.12,0.41-0.25,0.82-0.37,1.24c-0.91,0-1.82,0-2.72,0c-0.02-0.12-0.03-0.24-0.05-0.35
	C236.11,15.47,237.16,15.18,238.21,14.88z"/>
<path class="st0" d="M321.5,40.53c0.07-0.04,0.14-0.09,0.22-0.13C321.65,40.44,321.58,40.49,321.5,40.53z"/>
<path class="st0" d="M303.6,24.28c0.04-0.07,0.09-0.15,0.13-0.22C303.68,24.14,303.64,24.21,303.6,24.28z"/>
<path class="st0" d="M289.13,32.83c-0.12-0.09-0.25-0.18-0.37-0.27"/>
<path class="st0" d="M289.53,32.76c-0.12,0.03-0.25,0.07-0.37,0.1c0,0-0.03-0.03-0.03-0.03"/>
<path class="st0" d="M328.27,42.96c0.01-0.67,0.46-0.81,0.96-0.89c0.06,0.08,0.11,0.16,0.17,0.24
	C329.01,42.52,328.64,42.74,328.27,42.96C328.26,42.95,328.27,42.96,328.27,42.96z"/>
<path class="st0" d="M76.83,33.2c-1.1-0.08-2.2-0.17-3.3-0.25c0.01-0.11,0.01-0.21,0.02-0.32c1.11,0.01,2.23-0.21,3.32,0.17
	C76.86,32.93,76.85,33.07,76.83,33.2z"/>
</svg>
