<?xml version="1.0" encoding="utf-8"?>
<!-- Generator: Adobe Illustrator 27.7.0, SVG Export Plug-In . SVG Version: 6.00 Build 0)  -->
<svg version="1.1" id="Layer_1" xmlns="http://www.w3.org/2000/svg" xmlns:xlink="http://www.w3.org/1999/xlink" x="0px" y="0px"
	 viewBox="0 0 560 99.61" style="enable-background:new 0 0 560 99.61;" xml:space="preserve">
<style type="text/css">
	.st0{fill:url(#SVGID_1_);}
	.st1{fill:url(#SVGID_00000032620806303062187210000012300385823812661670_);}
	.st2{fill:url(#SVGID_00000016785694933481696430000003496051141910364336_);}
	.st3{fill:url(#SVGID_00000063620337743900850130000013342850644739484319_);}
	.st4{fill:url(#SVGID_00000137100995741263949640000013305475303274560162_);}
	.st5{fill:url(#SVGID_00000119800808151767851710000017461582469374936474_);}
	.st6{fill:url(#SVGID_00000102522214254356179380000011706269213264837809_);}
	.st7{fill:url(#SVGID_00000032629248392722471180000013503727346236093367_);}
	.st8{fill:url(#SVGID_00000042008942482718725240000006641409144454320061_);}
	.st9{fill:url(#SVGID_00000013898966390992320750000001409660701843083904_);}
	.st10{fill:url(#SVGID_00000111171651180324594090000003417007103071938953_);}
	.st11{fill:url(#SVGID_00000169528345247610448100000004063945970511338662_);}
	.st12{fill:url(#SVGID_00000129916828237097848250000014797777829880178359_);}
	.st13{fill:url(#SVGID_00000098907317675109072060000004495755415534584963_);}
	.st14{fill:url(#SVGID_00000119096632762127889570000015790698989743766150_);}
</style>
<linearGradient id="SVGID_1_" gradientUnits="userSpaceOnUse" x1="17.6998" y1="92.2315" x2="17.6998" y2="23.7622">
	<stop  offset="0" style="stop-color:#FFFFFF"/>
	<stop  offset="1" style="stop-color:#FFFAC4"/>
</linearGradient>
<path class="st0" d="M16.24,24.52v66.95c-1.84,0-4.64,0.25-8.4,0.76v-1.14c1.97-0.85,3.34-2.69,4.1-5.53
	c0.77-2.79,1.15-7.85,1.15-15.18V41.99c0-5.5-0.4-9.55-1.19-12.13c-0.79-2.54-2.15-4.19-4.07-4.95v-1.14
	C10.96,24.19,13.76,24.44,16.24,24.52z M19.12,91.47V24.52c3.17,0,5.98-0.25,8.44-0.76v1.14c-1.51,0.47-2.76,1.82-3.76,4.06
	c-1.02,2.33-1.53,7.14-1.53,14.42v30.3c0,6.52,0.54,10.9,1.61,13.15c1.07,2.24,2.3,3.66,3.68,4.26v1.14
	C25.15,91.72,22.34,91.47,19.12,91.47z"/>
<linearGradient id="SVGID_00000032619395767583389310000004459469579521180293_" gradientUnits="userSpaceOnUse" x1="58.2089" y1="92.2315" x2="58.2089" y2="43.2212">
	<stop  offset="0" style="stop-color:#FFFFFF"/>
	<stop  offset="1" style="stop-color:#FFFAC4"/>
</linearGradient>
<path style="fill:url(#SVGID_00000032619395767583389310000004459469579521180293_);" d="M39.05,43.77l17.68,44.15l-1.78,4.32
	L38.9,52.13l-1.01,27.14c-0.05,2.73-0.08,3.85-0.08,3.36c0,5.3,1.75,8.23,5.24,8.77v0.82c-0.03,0-0.39-0.05-1.09-0.14
	c-2.9-0.27-4.81-0.41-5.74-0.41c-1.24,0-3.48,0.18-6.71,0.55v-0.82c3.28-1,5.07-4.94,5.35-11.82l1.12-31.05
	c-1.53-2.24-3.68-3.74-6.48-4.5v-0.82c2.09,0.27,4.33,0.42,6.71,0.45L39.05,43.77z M58.25,75.46l12.41-31.69h2.99l1.82,47.92h-1.51
	c-1.09,0-2.51,0.09-4.27,0.27l-2.56,0.27v-0.82c3.1-1,4.65-4.26,4.65-9.77c0,0.09-0.03-0.92-0.08-3.05L70.7,52.09L58.29,83.96
	L42.23,43.77h3.3L58.25,75.46z M78.34,91.69l-1.86-47.92h1.32c1.89,0,4.54-0.18,7.95-0.55v0.82c-1.78,0.36-3.15,1.33-4.11,2.91
	c-1.01,1.58-1.51,3.49-1.51,5.73l0.08,4.86l0.85,21.78c0.16,3.97,0.69,6.9,1.59,8.77c0.9,1.91,2.33,3.02,4.27,3.32v0.82
	C83.08,91.87,80.22,91.69,78.34,91.69z"/>
<linearGradient id="SVGID_00000080180705220242273250000011989438336645540010_" gradientUnits="userSpaceOnUse" x1="115.4711" y1="92.2315" x2="115.4711" y2="43.2212">
	<stop  offset="0" style="stop-color:#FFFFFF"/>
	<stop  offset="1" style="stop-color:#FFFAC4"/>
</linearGradient>
<path style="fill:url(#SVGID_00000080180705220242273250000011989438336645540010_);" d="M96.31,43.77L114,87.91l-1.78,4.32
	l-16.05-40.1l-1.01,27.14c-0.05,2.73-0.08,3.85-0.08,3.36c0,5.3,1.75,8.23,5.24,8.77v0.82c-0.03,0-0.39-0.05-1.09-0.14
	c-2.9-0.27-4.81-0.41-5.74-0.41c-1.24,0-3.48,0.18-6.71,0.55v-0.82c3.28-1,5.07-4.94,5.35-11.82l1.12-31.05
	c-1.53-2.24-3.68-3.74-6.48-4.5v-0.82c2.09,0.27,4.33,0.42,6.71,0.45L96.31,43.77z M115.51,75.46l12.41-31.69h2.99l1.82,47.92h-1.51
	c-1.09,0-2.51,0.09-4.27,0.27l-2.56,0.27v-0.82c3.1-1,4.65-4.26,4.65-9.77c0,0.09-0.03-0.92-0.08-3.05l-1.01-26.51l-12.41,31.87
	L99.49,43.77h3.3L115.51,75.46z M135.6,91.69l-1.86-47.92h1.32c1.89,0,4.54-0.18,7.95-0.55v0.82c-1.78,0.36-3.15,1.33-4.11,2.91
	c-1.01,1.58-1.51,3.49-1.51,5.73l0.08,4.86l0.85,21.78c0.16,3.97,0.69,6.9,1.59,8.77c0.9,1.91,2.33,3.02,4.27,3.32v0.82
	C140.34,91.87,137.48,91.69,135.6,91.69z"/>
<linearGradient id="SVGID_00000064328367225990756770000003105096876214284969_" gradientUnits="userSpaceOnUse" x1="167.5367" y1="92.8682" x2="167.5367" y2="42.0391">
	<stop  offset="0" style="stop-color:#FFFFFF"/>
	<stop  offset="1" style="stop-color:#FFFAC4"/>
</linearGradient>
<path style="fill:url(#SVGID_00000064328367225990756770000003105096876214284969_);" d="M151.91,48.04
	c-2.84,5.15-4.27,11.75-4.27,19.78c0,7.27,1.36,13.58,4.07,18.91c-5.22-4.03-7.83-10.49-7.83-19.37
	C143.88,58.24,146.56,51.8,151.91,48.04z M184.56,67.5c0,5.58-0.72,10.29-2.17,14.14c-1.42,3.82-3.43,6.64-6.01,8.46
	c-2.53,1.85-5.49,2.77-8.88,2.77c-5.38,0-9.54-2.26-12.49-6.77c-2.95-4.52-4.42-10.73-4.42-18.64c0-8.21,1.5-14.52,4.5-18.91
	c3-4.33,7.11-6.5,12.33-6.5c5.3,0,9.49,2.17,12.56,6.5C183.04,52.84,184.56,59.16,184.56,67.5z M180.92,67.54
	c0-14.52-4.5-21.78-13.5-21.78c-8.82,0-13.22,7.44-13.22,22.32c0,14,4.46,21,13.38,21C176.47,89.09,180.92,81.91,180.92,67.54z
	 M183.17,87c2.82-4.49,4.23-11.24,4.23-20.28c0-7.97-1.4-14.18-4.19-18.64c5.33,3.73,7.99,10.11,7.99,19.14
	C191.19,76.14,188.52,82.73,183.17,87z"/>
<linearGradient id="SVGID_00000121977826654370787750000006052282845926218396_" gradientUnits="userSpaceOnUse" x1="217.9347" y1="92.2315" x2="217.9347" y2="43.2212">
	<stop  offset="0" style="stop-color:#FFFFFF"/>
	<stop  offset="1" style="stop-color:#FFFAC4"/>
</linearGradient>
<path style="fill:url(#SVGID_00000121977826654370787750000006052282845926218396_);" d="M200.41,43.77v47.92h-1.67
	c-0.65,0-1.67,0.09-3.06,0.27c-1.19,0.18-2.59,0.27-4.19,0.27v-0.82c1.65-0.21,3.02-1.17,4.11-2.86c1.09-1.7,1.63-4.97,1.63-9.82
	V55.36c0-6.61-1.91-10.38-5.74-11.32v-0.82C193.14,43.43,196.11,43.62,200.41,43.77z M204.36,91.69h-1.12V43.77
	c1.55,0,3.21-0.08,4.96-0.23c2.02-0.21,3.66-0.32,4.92-0.32c3.54,0,6.18,1.27,7.91,3.82c1.73,2.52,2.6,5.62,2.6,9.32
	c0,6.27-2.26,10.29-6.79,12.05c2.25,0.36,4.14,1.15,5.66,2.36c1.63,1.3,4.1,3.91,7.41,7.82c5.04,6,9.15,9,12.33,9
	c0.65,0,1.31-0.26,1.98-0.77l0.15,0.82c-1.03,1.58-2.47,2.36-4.3,2.36c-1.97,0-4.02-0.86-6.17-2.59c-2.02-1.64-5.03-4.85-9.04-9.64
	c-4.81-5.82-9.49-8.73-14.04-8.73c2.82,1.03,6.63,4.5,11.44,10.41c3.39,4.12,6.1,7.12,8.14,9c2.07,1.88,4.05,2.82,5.93,2.82v0.41
	c-0.88,0.36-1.75,0.55-2.6,0.55c-2.51,0-4.68-0.74-6.52-2.23c-0.98-0.82-2.23-2.07-3.74-3.75c-1.51-1.68-3.33-3.86-5.45-6.52
	c-3.1-3.88-5.4-6.52-6.9-7.91c-1.6-1.42-3.17-2.42-4.69-3v10.78c0,7.24,1.86,11.18,5.58,11.82v0.82
	C208.94,91.87,206.38,91.69,204.36,91.69z M206.46,56.27v9.87c1.52,0.45,3.18,0.68,4.96,0.68c5.82,0,8.73-3.55,8.73-10.64
	c0-6.64-2.88-9.96-8.65-9.96c-1.86,0-3.31,0.44-4.34,1.32C206.69,48.75,206.46,51.66,206.46,56.27z M224.02,66.09
	c1.68-3.12,2.52-6.56,2.52-10.32c0-3.42-0.97-6.86-2.91-10.32c4.45,2.21,6.67,5.7,6.67,10.46
	C230.31,60.73,228.21,64.12,224.02,66.09z"/>
<linearGradient id="SVGID_00000038380939654418506110000007102872302768115618_" gradientUnits="userSpaceOnUse" x1="298.7396" y1="92.2315" x2="298.7396" y2="43.2212">
	<stop  offset="0" style="stop-color:#FFFFFF"/>
	<stop  offset="1" style="stop-color:#FFFAC4"/>
</linearGradient>
<path style="fill:url(#SVGID_00000038380939654418506110000007102872302768115618_);" d="M305.7,80.68l-3.45-8.46h-14.62l-3.68,8.46
	l-0.19,0.59c-0.03,0.03-0.22,0.47-0.58,1.32c-0.54,1.27-0.81,2.58-0.81,3.91c0,2.3,1.09,3.94,3.26,4.91v0.82
	c-0.44,0-1.2-0.08-2.29-0.23c-1.53-0.21-2.9-0.32-4.11-0.32c-1.11,0-2.48,0.11-4.11,0.32c-1.11,0.15-1.85,0.23-2.21,0.23v-0.82
	c2.84-1.7,5.43-5.2,7.76-10.5l12.87-29.37c-0.98-2.33-2.33-4.14-4.05-5.41c-1.72-1.27-3.73-1.97-6.03-2.09v-0.82h1.36
	c1.21,0,2.88,0.09,5,0.27c2.22,0.18,3.67,0.27,4.34,0.27l19.58,47.92c-2.51,0.06-5.52,0.24-9.04,0.55v-0.82
	c1.96-0.39,2.95-1.64,2.95-3.73C307.64,86.14,306.99,83.81,305.7,80.68z M289.14,68.82h11.71L295.23,55L289.14,68.82z M316.83,91.69
	l-19.58-47.92h3.8c0.52,1.58,1.24,3.56,2.17,5.96c1.03,2.58,1.62,4.11,1.74,4.59c0.13,0.27,0.25,0.59,0.35,0.95l9.11,22.14
	c3.18,7.7,6.57,12.37,10.16,14v0.82C321.07,91.87,318.48,91.69,316.83,91.69z"/>
<linearGradient id="SVGID_00000036224619146069934820000006996072261876831363_" gradientUnits="userSpaceOnUse" x1="343.6305" y1="92.2315" x2="343.6305" y2="24.5242">
	<stop  offset="0" style="stop-color:#FFFFFF"/>
	<stop  offset="1" style="stop-color:#FFFAC4"/>
</linearGradient>
<path style="fill:url(#SVGID_00000036224619146069934820000006996072261876831363_);" d="M324.3,24.52l8.18,0.75v66.2h-2.4
	c-1.47,0-3.4,0.25-5.78,0.75V91.1c1.91-1.21,3.22-3.16,3.92-5.84c0.7-2.72,1.05-7.08,1.05-13.06V42.17c0-6.41-0.52-10.64-1.55-12.69
	c-1.06-2.09-2.2-3.37-3.41-3.83V24.52z M353.23,91.48h-17.96v-66.2c1.76-0.08,3.72-0.25,5.89-0.5c2.02-0.17,2.95-0.25,2.79-0.25
	v1.13c-1.99,0.84-3.4,2.49-4.23,4.96c-0.83,2.55-1.24,6.34-1.24,11.37v27.32c0,4.1,0.13,7.77,0.39,10.99
	c0.23,3.39,0.5,5.34,0.81,5.84c0.28,0.5,1.03,0.75,2.25,0.75h8.14c2.87,0,5.25-0.73,7.13-2.2c1.89-1.47,3.54-4.35,4.96-8.67h0.78
	c-0.18,2.01-0.76,5.19-1.75,9.55c-0.65,2.76-1.06,4.98-1.24,6.66C357.88,91.73,355.63,91.48,353.23,91.48z"/>
<g>
	
		<linearGradient id="SVGID_00000142164534544963146670000001572872513154723246_" gradientUnits="userSpaceOnUse" x1="244.0372" y1="92.2315" x2="244.0372" y2="43.2212">
		<stop  offset="0" style="stop-color:#FFFFFF"/>
		<stop  offset="1" style="stop-color:#FFFAC4"/>
	</linearGradient>
	<path style="fill:url(#SVGID_00000142164534544963146670000001572872513154723246_);" d="M238.86,43.63
		c-2.04-0.06-3.75-0.2-5.12-0.41c0,2.64-0.16,5.58-0.47,8.82c-0.1,0.94-0.16,1.71-0.16,2.32c0,0.45,0.01,0.88,0.04,1.27h0.89
		c0.7-3.36,1.56-5.65,2.6-6.87c1.03-1.21,2.81-1.82,5.31-1.82h9.89V78c0,4.46-0.39,7.64-1.16,9.55c-0.8,1.94-2.27,3.23-4.42,3.86
		v0.82c3.34-0.36,5.84-0.55,7.52-0.55h1.16V43.77h-12.8L238.86,43.63z"/>
	
		<linearGradient id="SVGID_00000117669824687316444180000001139613910913550466_" gradientUnits="userSpaceOnUse" x1="268.5846" y1="92.2315" x2="268.5846" y2="43.2212">
		<stop  offset="0" style="stop-color:#FFFFFF"/>
		<stop  offset="1" style="stop-color:#FFFAC4"/>
	</linearGradient>
	<path style="fill:url(#SVGID_00000117669824687316444180000001139613910913550466_);" d="M257.82,43.77v47.92h1.01
		c0.59,0,3.18,0.18,7.76,0.55v-0.82c-1.89-0.45-3.28-1.62-4.19-3.5c-0.91-1.88-1.36-4.68-1.36-8.41V46.95h8.8
		c3.33,0,5.52,0.83,6.55,2.5c1.01,1.64,1.54,3.7,1.59,6.18h0.93c0.13-1.36,0.19-2.71,0.19-4.05c0-2.09,0.04-3.83,0.12-5.23
		c0.08-1.52,0.12-2.56,0.12-3.14c-2.48,0.36-5,0.55-7.56,0.55H257.82z"/>
	
		<linearGradient id="SVGID_00000108987303829645329050000006664333103346346885_" gradientUnits="userSpaceOnUse" x1="268.6669" y1="41.3091" x2="268.6669" y2="6.2153">
		<stop  offset="0" style="stop-color:#FFFFFF"/>
		<stop  offset="1" style="stop-color:#FFFAC4"/>
	</linearGradient>
	<path style="fill:url(#SVGID_00000108987303829645329050000006664333103346346885_);" d="M279.43,41.31c0-0.41-0.04-1.16-0.12-2.25
		c-0.08-1-0.12-2.25-0.12-3.74c0-0.96-0.06-1.92-0.19-2.9h-0.93c-0.05,1.78-0.58,3.26-1.59,4.43c-1.03,1.19-3.22,1.79-6.55,1.79
		h-8.8V15.33c0-2.67,0.45-4.68,1.36-6.02c0.9-1.35,2.3-2.18,4.19-2.51V6.22c-4.58,0.26-7.16,0.39-7.76,0.39h-1.01v34.31h13.96
		C274.43,40.92,276.95,41.05,279.43,41.31z"/>
	
		<linearGradient id="SVGID_00000088100543689301423460000012053667667627185816_" gradientUnits="userSpaceOnUse" x1="244.1193" y1="41.3091" x2="244.1193" y2="6.2153">
		<stop  offset="0" style="stop-color:#FFFFFF"/>
		<stop  offset="1" style="stop-color:#FFFAC4"/>
	</linearGradient>
	<path style="fill:url(#SVGID_00000088100543689301423460000012053667667627185816_);" d="M246.35,6.22V6.8
		c2.15,0.46,3.62,1.38,4.42,2.77c0.78,1.37,1.16,3.65,1.16,6.84v22.23h-9.89c-2.51,0-4.28-0.43-5.31-1.3
		c-1.03-0.87-1.9-2.51-2.6-4.92h-0.89c-0.03,0.28-0.04,0.59-0.04,0.91c0,0.43,0.05,0.99,0.16,1.66c0.31,2.32,0.47,4.43,0.47,6.32
		c1.37-0.15,3.08-0.25,5.12-0.29l3.3-0.1h12.8V6.61h-1.16C252.19,6.61,249.68,6.48,246.35,6.22z"/>
</g>
<linearGradient id="SVGID_00000177457165377974848100000001097918325678832571_" gradientUnits="userSpaceOnUse" x1="413.6686" y1="92.4173" x2="413.6686" y2="24.5242">
	<stop  offset="0" style="stop-color:#FFFFFF"/>
	<stop  offset="1" style="stop-color:#FFFAC4"/>
</linearGradient>
<path style="fill:url(#SVGID_00000177457165377974848100000001097918325678832571_);" d="M398.25,34.44
	c-3.63,6.08-5.44,14.16-5.44,24.24c0,11.82,2.24,20.71,6.73,26.66c-3.4-1.86-6.11-5.23-8.11-10.11c-2-4.84-3.01-10.29-3.01-16.37
	c0-4.17,0.53-8.02,1.57-11.53c0.99-3.47,2.16-6.18,3.53-8.12C394.8,37.36,396.38,35.77,398.25,34.44z M437.96,77.6h0.95l-1.53,10.48
	c-2.96,1.49-5.81,2.58-8.54,3.29c-2.74,0.7-5.38,1.05-7.92,1.05c-7.7,0-13.73-2.91-18.09-8.74c-4.36-5.79-6.54-14.2-6.54-25.24
	c0-10.99,2.34-19.41,7.02-25.24c4.64-5.79,10.79-8.68,18.42-8.68c5.54,0,11.13,1.3,16.8,3.91c-0.25,5.21-0.38,8.29-0.38,9.24
	c0,0.87,0.02,1.72,0.05,2.54v1.49c0,2.15-0.08,4.2-0.24,6.14h-0.81c-1.97-12.48-7.48-18.73-16.51-18.73
	c-6.11,0-10.98,2.58-14.6,7.75c-3.63,5.13-5.44,12.53-5.44,22.2c0,8.47,1.67,15.36,5.01,20.65c3.31,5.29,8.3,7.94,14.98,7.94
	c3.69,0,7.06-0.95,10.12-2.85C433.73,82.97,436.15,80.57,437.96,77.6z"/>
<linearGradient id="SVGID_00000011714841414213545380000000153019618561334970_" gradientUnits="userSpaceOnUse" x1="464.0479" y1="92.5994" x2="464.0479" y2="41.7703">
	<stop  offset="0" style="stop-color:#FFFFFF"/>
	<stop  offset="1" style="stop-color:#FFFAC4"/>
</linearGradient>
<path style="fill:url(#SVGID_00000011714841414213545380000000153019618561334970_);" d="M448.42,47.77
	c-2.84,5.15-4.27,11.75-4.27,19.78c0,7.27,1.36,13.58,4.07,18.91c-5.22-4.03-7.83-10.49-7.83-19.37
	C440.39,57.97,443.07,51.53,448.42,47.77z M481.07,67.23c0,5.58-0.72,10.29-2.17,14.14c-1.42,3.82-3.43,6.64-6.01,8.46
	c-2.53,1.85-5.49,2.77-8.88,2.77c-5.38,0-9.54-2.26-12.49-6.77c-2.95-4.52-4.42-10.73-4.42-18.64c0-8.21,1.5-14.52,4.5-18.91
	c3-4.33,7.11-6.5,12.33-6.5c5.3,0,9.49,2.17,12.56,6.5C479.55,52.58,481.07,58.9,481.07,67.23z M477.43,67.28
	c0-14.52-4.5-21.78-13.5-21.78c-8.82,0-13.22,7.44-13.22,22.32c0,14,4.46,21,13.38,21C472.98,88.83,477.43,81.64,477.43,67.28z
	 M479.68,86.73c2.82-4.49,4.23-11.24,4.23-20.28c0-7.97-1.4-14.18-4.19-18.64c5.33,3.73,7.99,10.11,7.99,19.14
	C487.7,75.87,485.03,82.46,479.68,86.73z"/>
<linearGradient id="SVGID_00000024683910001281941570000003871685693698459809_" gradientUnits="userSpaceOnUse" x1="499.3994" y1="91.9627" x2="499.3994" y2="42.9524">
	<stop  offset="0" style="stop-color:#FFFFFF"/>
	<stop  offset="1" style="stop-color:#FFFAC4"/>
</linearGradient>
<path style="fill:url(#SVGID_00000024683910001281941570000003871685693698459809_);" d="M497.93,43.5v47.92
	c-1.86,0-4.69,0.18-8.49,0.55v-0.82c1.99-0.61,3.37-1.92,4.15-3.96c0.78-2,1.16-5.62,1.16-10.87V56c0-3.94-0.4-6.83-1.2-8.68
	c-0.8-1.82-2.17-3-4.11-3.55v-0.82C492.59,43.26,495.42,43.44,497.93,43.5z M500.83,91.42V43.5c3.21,0,6.05-0.18,8.53-0.55v0.82
	c-1.53,0.33-2.79,1.3-3.8,2.91c-1.03,1.67-1.55,5.11-1.55,10.32v21.69c0,4.67,0.54,7.8,1.63,9.41c1.09,1.61,2.33,2.62,3.72,3.05
	v0.82C506.94,91.6,504.09,91.42,500.83,91.42z"/>
<linearGradient id="SVGID_00000056394881569327028950000006933803097705442718_" gradientUnits="userSpaceOnUse" x1="531.2029" y1="91.9627" x2="531.2029" y2="30.4392">
	<stop  offset="0" style="stop-color:#FFFFFF"/>
	<stop  offset="1" style="stop-color:#FFFAC4"/>
</linearGradient>
<path style="fill:url(#SVGID_00000056394881569327028950000006933803097705442718_);" d="M511.87,30.44l8.18,0.68v60.15h-2.4
	c-1.47,0-3.4,0.23-5.78,0.68v-1.03c1.91-1.1,3.22-2.87,3.92-5.31c0.7-2.47,1.05-6.43,1.05-11.87V46.48c0-5.82-0.52-9.66-1.55-11.53
	c-1.06-1.9-2.2-3.06-3.41-3.48V30.44z M540.8,91.28h-17.96V31.12c1.76-0.08,3.72-0.23,5.89-0.46c2.02-0.15,2.95-0.23,2.79-0.23v1.03
	c-1.99,0.76-3.4,2.26-4.23,4.51c-0.83,2.32-1.24,5.76-1.24,10.33v24.83c0,3.73,0.13,7.06,0.39,9.99c0.23,3.08,0.5,4.85,0.81,5.31
	c0.28,0.46,1.03,0.68,2.25,0.68h8.14c2.87,0,5.25-0.67,7.14-2c1.89-1.33,3.54-3.96,4.96-7.88h0.78c-0.18,1.83-0.76,4.72-1.75,8.68
	c-0.65,2.51-1.06,4.53-1.24,6.05C545.45,91.51,543.21,91.28,540.8,91.28z"/>
</svg>
